<svg width="28" height="28" viewBox="0 0 28 28" fill="none" xmlns="http://www.w3.org/2000/svg">
<path d="M20.9476 6.4484C20.4919 5.08964 19.194 4.13415 17.6979 3.81973C17.1209 2.03011 15.0874 0.858952 12.8099 1.05821C10.8098 1.23319 8.91835 2.50295 8.51697 4.39652C6.21008 4.73941 4.48812 6.44964 4.49309 8.39451C3.86735 9.09596 3.32293 9.86476 2.86985 10.6864C1.92968 10.5566 1.12199 11.3375 1.20366 12.271C1.24154 12.704 1.46455 13.077 1.78762 13.3192C0.439741 18.0927 2.02975 23.3983 6.17338 26.6032C6.38824 26.7693 6.69597 26.7288 6.86102 26.5153C7.02666 26.3011 6.98733 25.9933 6.77316 25.8277C3.093 22.9811 1.45523 18.1409 2.72342 13.6123C3.98679 13.5647 4.59699 12.0488 3.74059 11.1375C4.03289 10.6102 4.3663 10.1067 4.7373 9.63129C5.06788 10.4436 5.71339 11.1205 6.54625 11.5739C3.70946 15.4054 4.3249 20.8167 8.01751 23.9108C11.8082 27.0868 17.527 26.6787 20.7941 22.7674C23.9972 18.9325 23.4642 13.3873 19.8781 10.1936C20.5792 9.53813 21.029 8.69929 21.1082 7.79533C25.0736 11.0294 26.291 16.322 24.5933 20.7995C23.6933 20.7375 22.9478 21.4954 23.0265 22.3947C23.0529 22.6969 23.1695 22.9699 23.3473 23.1896C23.0422 23.6379 22.7056 24.066 22.3424 24.4656C22.1603 24.6659 22.175 24.9759 22.3753 25.158C22.5747 25.3393 22.8849 25.3263 23.0678 25.125C23.4717 24.6807 23.8452 24.2039 24.1826 23.7044C25.1521 23.9132 26.0421 23.1186 25.9564 22.1385C25.9235 21.7621 25.7506 21.4309 25.4937 21.1916C27.4887 15.9899 25.8316 9.8406 20.9476 6.4484ZM2.71139 12.6311C2.44213 12.6547 2.2039 12.4548 2.18035 12.1855C2.15679 11.9163 2.35668 11.678 2.62594 11.6545C2.8952 11.6309 3.13343 11.8308 3.15699 12.1001C3.18054 12.3693 2.98065 12.6076 2.71139 12.6311ZM7.48227 11.9634C7.64122 12.0114 7.8043 12.052 7.97071 12.0852C8.15376 12.5802 8.17429 13.137 8.01312 13.6565C7.74166 14.5317 7.99386 15.5027 8.65542 16.1303C9.35367 16.7936 9.23522 17.3215 10.2229 17.7544C11.0455 18.1147 11.6051 18.8937 11.6833 19.7874C11.7673 20.7474 11.2778 21.6713 10.436 22.1413C9.51771 22.655 9.11169 23.391 9.04561 23.472C5.33963 20.7381 4.67827 15.5256 7.48227 11.9634ZM19.5117 22.7152C18.3206 23.8945 16.8471 24.6312 15.3024 24.9152L15.7518 24.1924C16.2654 23.3655 16.031 22.62 16.037 22.3692C15.9774 21.6879 16.4825 21.0903 17.1599 21.031C17.486 21.0025 17.6178 21.0913 18.5395 21.2955C19.0575 21.4192 19.4367 21.8586 19.4831 22.389L19.5116 22.7152L19.5117 22.7152ZM21.903 16.3096L21.754 16.274C21.5429 16.2236 21.3884 16.0447 21.3695 15.8288L21.3632 15.7565C21.2832 14.8422 20.4006 14.2203 19.515 14.4492C18.3154 14.7567 18.3758 14.7488 18.303 14.7552C17.9795 14.7835 17.7063 14.4979 17.7636 14.1678C17.7887 14.0233 17.8713 13.9014 17.9958 13.8248C18.6696 13.3915 18.8814 13.3337 19.1278 13.0401C19.1679 12.9923 19.1251 13.0541 19.9641 11.6745C21.1059 12.9951 21.767 14.6271 21.903 16.3096ZM19.2562 10.9525L18.3561 12.4332C18.2774 12.5161 18.2705 12.4995 17.4824 12.9896C16.7229 13.457 16.5439 14.4851 17.1015 15.1813C17.4801 15.6533 18.0885 15.8327 18.6297 15.6902L19.7599 15.3985C20.0663 15.3201 20.3598 15.5365 20.3865 15.842L20.3928 15.9142C20.4485 16.5512 20.904 17.079 21.5263 17.2276C21.6879 17.2645 21.8168 17.2952 21.9212 17.3206C21.8524 18.8682 21.337 20.4139 20.3412 21.7575C20.0951 21.0606 19.5112 20.5196 18.7674 20.342L17.7822 20.1064C16.3118 19.7549 14.9286 20.9494 15.0603 22.4547C15.06 22.7524 15.2232 23.1854 14.9191 23.675L14.0672 25.045C12.625 25.0858 11.1703 24.7417 9.86786 24.0054C10.147 23.5633 10.5019 23.2279 10.9142 22.9973C12.0922 22.3395 12.7774 21.046 12.6598 19.7021C12.5504 18.4511 11.7672 17.3607 10.6161 16.8565C9.98595 16.5803 10.1226 16.172 9.33023 15.4193C8.93712 15.0465 8.78761 14.4685 8.94939 13.9471C9.12969 13.3657 9.14676 12.7588 9.02104 12.1907C9.49119 12.1929 9.09067 12.2003 16.7548 11.5383C17.6183 11.4628 18.4108 11.1968 19.0769 10.7962C19.1376 10.8476 19.1974 10.8996 19.2562 10.9525ZM16.6694 10.5616L9.45732 11.1926C7.35168 11.3768 5.61931 10.1548 5.48223 8.58805C5.34089 6.97249 6.89414 5.51218 8.94289 5.33294L8.95008 5.3325C9.24023 5.31706 9.41399 5.10917 9.43357 4.88416C9.56096 3.42125 11.0492 2.19631 12.8953 2.0348C15.0082 1.84994 16.5455 3.04371 16.8265 4.35053C16.8695 4.55058 17.0322 4.70281 17.2347 4.73248C18.8283 4.96599 20.0196 6.02439 20.1318 7.30638C20.2831 9.03493 18.5809 10.3944 16.6694 10.5616ZM24.5342 22.7549C24.2649 22.7785 24.0267 22.5786 24.0031 22.3093C23.9796 22.04 24.1794 21.8018 24.4487 21.7783C24.718 21.7547 24.9562 21.9546 24.9797 22.2239C25.0033 22.4931 24.8034 22.7313 24.5342 22.7549Z" fill="#E9E02A"/>
</svg>
