<svg width="50" height="38" viewBox="0 0 50 38" fill="none" xmlns="http://www.w3.org/2000/svg">
<path d="M49.8648 23.0662C50.1652 25.5605 49.965 27.4562 49.264 28.7532C48.5631 30.0503 47.662 31.497 46.5605 33.0933C45.5592 33.3926 45.0085 33.692 44.9084 33.9913C44.8082 34.2906 44.608 34.4901 44.3076 34.5899C43.4064 35.1885 42.3551 35.6375 41.1535 35.9368C40.0521 36.1364 38.8505 36.1863 37.5488 36.0865C36.3472 35.9867 35.1958 35.6874 34.0943 35.1885C32.9929 34.6897 32.2419 34.0412 31.8414 33.243C31.3407 33.3428 30.9903 33.3428 30.79 33.243C30.5898 33.0434 30.3394 32.8938 30.039 32.794C30.039 31.7963 29.5384 31.2974 28.5371 31.2974C28.6372 30.2997 28.487 29.7011 28.0865 29.5015C27.7861 29.302 27.5358 29.0525 27.3355 28.7532C27.6359 28.3541 27.686 28.0049 27.4857 27.7056C27.2855 27.3065 27.2855 26.8575 27.4857 26.3587C27.2855 25.9596 27.0351 25.7102 26.7348 25.6104C26.5345 25.5106 26.3342 25.3609 26.134 25.1614C25.8336 24.463 25.9337 23.9142 26.4344 23.5152C26.935 23.1161 27.1353 22.5174 27.0351 21.7192C26.8349 21.5197 26.4844 21.37 25.9838 21.2703C25.5833 21.1705 25.2328 21.0208 24.9324 20.8213C25.1327 20.522 25.0826 20.2227 24.7822 19.9233C24.582 19.624 24.3817 19.3746 24.1814 19.175C24.3817 18.4766 24.582 18.0277 24.7822 17.8281C24.9825 17.6286 25.0826 17.3791 25.0826 17.0798C27.1853 14.6853 28.8876 12.5901 30.1892 10.7941C31.5911 8.89847 33.1431 7.10256 34.8453 5.40643C35.8466 4.80779 36.7478 4.4087 37.5488 4.20916C38.45 4.00961 39.1509 3.61052 39.6515 3.01189C40.9532 2.91211 42.305 2.66268 43.7068 2.26359C45.2088 1.76473 46.5105 2.01416 47.6119 3.01189C47.6119 3.51075 47.2114 3.90984 46.4103 4.20916C45.6093 4.4087 45.0586 4.25904 44.7582 3.76018C44.3577 4.45859 43.9571 4.85768 43.5566 4.95745C43.2562 5.05722 43.056 5.25677 42.9558 5.55609C39.7517 6.25449 37.3486 7.90074 35.7465 10.4948C34.1444 13.0889 33.8941 16.0322 34.9955 19.3247C35.7965 19.624 36.4974 19.5741 37.0982 19.175C37.7991 18.6762 38.45 18.4766 39.0508 18.5764C40.3525 18.8757 41.2536 18.9256 41.7543 18.7261C42.2549 18.5265 42.6054 18.6762 42.8056 19.175C43.7068 18.9755 44.4077 19.0753 44.9084 19.4744C45.409 19.8735 46.0098 20.1728 46.7107 20.3723C47.8122 21.0707 48.463 21.6694 48.6633 22.1682C48.9636 22.5673 49.3642 22.8666 49.8648 23.0662ZM24.9324 26.3587C25.1327 26.8575 25.1327 27.5061 24.9324 28.3042C24.7322 29.1024 24.2315 29.6013 23.4305 29.8008C23.0299 31.0979 22.6795 32.2453 22.3791 33.243C22.0787 34.1409 21.6782 35.0389 21.1775 35.9368C20.3765 36.1364 19.6756 36.4357 19.0748 36.8348C18.5741 37.2339 18.0234 37.5332 17.4226 37.7327C15.7204 38.2316 14.1184 38.0321 12.6164 37.1341C11.1144 36.2362 9.81276 35.2384 8.71132 34.1409C7.00911 32.4448 5.45709 30.6489 4.05527 28.7532C2.65345 26.7578 1.65215 24.7623 1.05137 22.7669C0.951237 22.4675 0.951237 22.2181 1.05137 22.0186C1.1515 21.819 1.20156 21.5197 1.20156 21.1206C0.600781 20.6217 0.30039 20.1728 0.30039 19.7737C0.30039 19.2748 0.20026 18.8757 0 18.5764C0.700911 17.7782 1.30169 16.8803 1.80234 15.8826C2.30299 14.8848 2.80364 13.8871 3.3043 12.8894C3.80495 11.8916 4.35566 10.9438 4.95644 10.0459C5.55722 9.1479 6.3082 8.39961 7.20937 7.80097C7.40963 7.00279 7.71002 6.45404 8.11054 6.15472C8.51106 5.75563 8.86152 5.30665 9.16191 4.80779C10.2633 4.10938 11.2646 3.3112 12.1658 2.41325C13.067 1.5153 14.2185 0.816888 15.6203 0.318025C16.4213 0.218253 17.2725 0.11848 18.1736 0.0187074C19.1749 -0.0810652 19.9259 0.218253 20.4266 0.916661C20.4266 1.41552 20.3264 1.8645 20.1262 2.26359C19.9259 2.56291 19.7256 2.91211 19.5254 3.3112C18.1236 3.51075 16.7217 3.85995 15.3199 4.35882C13.9181 4.75791 12.9669 5.55609 12.4662 6.75336C12.0657 6.65358 11.8154 6.75336 11.7152 7.05268C11.6151 7.35199 11.4148 7.60142 11.1144 7.80097C10.8141 8.59915 10.5637 9.44722 10.3635 10.3452C10.1632 11.2431 9.81276 11.9914 9.31211 12.5901C9.41224 13.3882 9.41224 14.1864 9.31211 14.9846C9.31211 15.683 9.11185 16.3315 8.71132 16.9302C9.11185 17.0299 9.26204 17.2794 9.16191 17.6785C9.06178 17.9778 8.96165 18.2771 8.86152 18.5764C8.96165 19.0753 9.16191 19.4744 9.4623 19.7737C9.86282 19.9732 10.1632 20.2725 10.3635 20.6716C11.1645 19.8735 12.0156 19.4245 12.9168 19.3247C13.9181 19.2249 14.8693 19.0753 15.7705 18.8757C16.7718 19.3746 18.0735 20.0231 19.6756 20.8213C21.3778 21.5197 22.5293 22.268 23.1301 23.0662C23.5306 24.0639 23.881 24.7623 24.1814 25.1614C24.582 25.4607 24.8323 25.8598 24.9324 26.3587ZM31.541 17.9778C30.9402 17.2794 30.5898 17.0299 30.4896 17.2295C30.3895 17.429 30.1392 17.5288 29.7387 17.5288C30.3394 18.327 30.74 18.6762 30.9402 18.5764C31.1405 18.3769 31.3407 18.1773 31.541 17.9778ZM42.5053 21.8689C41.4038 21.37 40.5027 21.4698 39.8017 22.1682C39.201 22.7669 38.3499 23.0662 37.2484 23.0662C36.4474 23.6648 35.5963 24.2136 34.6951 24.7124C33.7939 25.2113 32.7926 25.7102 31.6912 26.209C32.0917 27.0072 32.342 27.3564 32.4422 27.2566C32.6424 27.1569 32.8928 27.1569 33.1931 27.2566C33.4935 26.4584 34.0443 25.9097 34.8453 25.6104C35.6463 25.3111 36.5976 25.1115 37.699 25.0117C37.8993 24.2136 38.6002 23.7147 39.8017 23.5152C41.1034 23.2158 42.0046 22.6671 42.5053 21.8689ZM46.8609 23.8145C45.8596 23.5152 45.3089 23.4653 45.2088 23.6648C45.1086 23.7646 44.9584 23.8644 44.7582 23.9641C43.7569 24.2634 42.9558 24.6625 42.3551 25.1614C41.8544 25.6603 41.3538 26.0095 40.8531 26.209C40.753 26.6081 40.3525 26.9573 39.6515 27.2566C38.9506 27.4562 38.1997 27.6058 37.3986 27.7056C38.3999 28.5038 39.251 28.6036 39.9519 28.0049C40.753 27.4063 41.4539 27.107 42.0547 27.107C41.8544 27.5061 41.6041 27.8054 41.3037 28.0049C41.0033 28.1047 40.753 28.3042 40.5527 28.6036C39.8518 28.3042 39.3512 28.4539 39.0508 29.0525C38.7504 29.5514 38.1997 29.8008 37.3986 29.8008C36.1971 29.2022 35.4961 29.2521 35.2959 29.9505C35.4961 30.15 35.6964 30.1001 35.8967 29.8008C36.1971 29.5015 36.5475 29.4017 36.948 29.5015C36.5475 30.1001 36.1971 30.599 35.8967 30.9981C35.6964 31.3972 35.3459 31.6466 34.8453 31.7464C35.3459 32.9437 36.147 33.5423 37.2484 33.5423C38.3499 33.5423 39.6015 33.6421 41.0033 33.8416C41.7042 33.243 42.5053 32.6443 43.4064 32.0457C44.4077 31.4471 45.2088 30.7487 45.8096 29.9505C46.5105 29.1523 47.0111 28.2544 47.3115 27.2566C47.6119 26.2589 47.4617 25.1115 46.8609 23.8145ZM32.5924 22.1682C31.6912 21.37 31.0403 21.1705 30.6398 21.5696C30.3394 21.8689 29.9389 22.1183 29.4383 22.3179C30.4396 22.9165 31.0904 23.1161 31.3908 22.9165C31.6912 22.6172 32.0917 22.3678 32.5924 22.1682ZM40.1021 24.8621C39.7016 24.7623 39.3512 24.8621 39.0508 25.1614C38.8505 25.3609 38.5 25.3609 37.9994 25.1614C37.2985 26.2589 36.2471 26.9573 34.8453 27.2566C33.5436 27.5559 32.4422 28.1047 31.541 28.9029C33.2432 29.302 34.645 29.0026 35.7465 28.0049C36.8479 27.0072 38.0995 26.4086 39.5014 26.209L40.1021 24.8621ZM33.4935 23.3655C32.5924 23.166 31.7913 23.3655 31.0904 23.9641C30.4896 24.5628 30.1892 25.1115 30.1892 25.6104C30.79 25.4108 31.3407 25.1115 31.8414 24.7124C32.4422 24.3133 32.9929 23.8644 33.4935 23.3655ZM6.15801 14.0866C5.75748 14.0866 5.35696 14.2862 4.95644 14.6853C4.65605 15.0844 4.40573 15.4835 4.20547 15.8826C4.10534 16.2816 4.10534 16.6807 4.20547 17.0798C4.40573 17.4789 4.85631 17.6785 5.55722 17.6785C5.75748 17.0798 5.90768 16.5311 6.00781 16.0322C6.10794 15.5333 6.15801 14.8848 6.15801 14.0866ZM22.3791 28.4539C22.4792 27.6557 22.329 27.0072 21.9285 26.5083C21.6281 25.9097 21.3778 25.3609 21.1775 24.8621C20.0761 24.463 19.1749 23.9641 18.474 23.3655C17.8732 22.6671 17.1723 22.0685 16.3713 21.5696C15.4701 21.6694 14.7692 21.7691 14.2685 21.8689C13.7679 21.8689 13.4174 22.0186 13.2172 22.3179C13.7178 22.4177 14.1184 22.4177 14.4187 22.3179C14.7191 22.1183 15.0195 21.9687 15.3199 21.8689C15.5202 23.2657 15.1197 24.2136 14.1184 24.7124C13.1171 25.1115 12.3661 25.8099 11.8654 26.8076C13.067 26.6081 14.0683 26.2589 14.8693 25.76C15.6704 25.1614 16.7217 24.9619 18.0234 25.1614C18.5241 25.76 18.6743 26.3587 18.474 26.9573C18.3739 27.5559 18.1236 28.1047 17.723 28.6036C17.3225 29.0026 16.8719 29.3519 16.3713 29.6512C15.8706 29.9505 15.4701 30.1999 15.1697 30.3995C15.0696 31.1976 14.9194 31.7464 14.7191 32.0457C14.5189 32.345 14.2685 32.6443 13.9682 32.9437C14.2685 34.1409 14.4187 34.8393 14.4187 35.0389C14.9194 35.0389 15.37 35.0888 15.7705 35.1885C16.2712 35.2883 16.8219 35.2384 17.4226 35.0389C17.8232 34.9391 18.3238 34.5899 18.9246 33.9913C19.5254 33.3926 20.0761 32.7441 20.5767 32.0457C21.0774 31.2475 21.4779 30.5491 21.7783 29.9505C22.1788 29.2521 22.3791 28.7532 22.3791 28.4539ZM5.85761 18.5764C5.35696 18.4766 4.95644 18.5265 4.65605 18.7261C4.45579 18.9256 4.20547 19.0753 3.90508 19.175C4.00521 19.6739 3.90508 20.073 3.60469 20.3723C3.40443 20.6716 3.40443 21.0707 3.60469 21.5696C4.40573 20.7714 5.1567 19.7737 5.85761 18.5764ZM17.4226 27.2566C16.4213 26.658 15.6704 26.5582 15.1697 26.9573C14.6691 27.2566 14.0683 27.5061 13.3674 27.7056C12.1658 28.2045 11.3147 28.6534 10.8141 29.0525C10.4135 29.4516 9.71263 29.6013 8.71132 29.5015C9.01171 30.1999 9.41224 30.7986 9.91289 31.2974C10.4135 31.6965 10.764 32.2951 10.9643 33.0933C12.5663 32.0956 13.7679 31.0979 14.5689 30.1001C15.37 29.0026 16.3212 28.0548 17.4226 27.2566ZM7.20937 22.3179C6.50846 22.3179 6.05788 22.4675 5.85761 22.7669C5.65735 23.0662 5.3069 23.3156 4.80625 23.5152C5.50716 24.2136 6.00781 24.3133 6.3082 23.8145C6.70872 23.3156 7.00911 22.8167 7.20937 22.3179ZM10.3635 25.3111C9.86282 25.4108 9.31211 25.6104 8.71132 25.9097C8.11054 26.209 7.60989 26.5582 7.20937 26.9573C6.90898 27.2566 6.70872 27.6058 6.60859 28.0049C6.60859 28.404 7.00911 28.8031 7.81015 29.2022C7.91028 28.3042 8.3108 27.6557 9.01171 27.2566C9.81276 26.7578 10.2633 26.1092 10.3635 25.3111ZM46.2601 26.209C46.2601 26.8076 46.0599 27.2067 45.6594 27.4063C45.359 27.6058 45.1086 27.955 44.9084 28.4539C43.7068 28.9528 43.106 29.0026 43.106 28.6036C43.7068 27.7056 44.2075 27.107 44.608 26.8076C45.1086 26.5083 45.409 26.0594 45.5092 25.4607L46.2601 26.209ZM44.1574 26.9573C43.2562 27.2566 42.7055 27.3065 42.5053 27.107C43.106 26.8076 43.5566 26.658 43.857 26.658C44.1574 26.5582 44.2575 26.2589 44.1574 25.76V26.9573ZM42.9558 29.3519C43.1561 29.8507 43.0059 30.2997 42.5053 30.6988C42.1047 30.9981 41.8043 31.3473 41.6041 31.7464C41.9045 31.048 42.0547 30.5491 42.0547 30.2498C42.1548 29.9505 42.1047 29.7011 41.9045 29.5015L42.9558 29.3519Z" fill="#945D0E"/>
</svg>
