<svg width="417" height="427" viewBox="0 0 417 427" fill="none" xmlns="http://www.w3.org/2000/svg">
<g opacity="0.4">
<path d="M269.51 144.537C270.764 146.525 272.017 148.512 273.269 150.501L273.312 150.436C267.673 153.591 265.915 153.093 264.049 147.81C264.182 146.323 264.16 144.744 266.1 144.317C267.236 144.39 268.374 144.463 269.51 144.537Z" fill="#D8C49F"/>
<path d="M267.864 234.897C266.83 236.237 265.358 236.772 263.784 237.12C261.501 237.159 259.799 236.658 260.665 233.767L260.676 233.8C260.629 233.263 260.715 232.748 260.928 232.253C261.933 230.83 263.21 230 265.036 230.372C265.257 230.523 265.478 230.677 265.698 230.83C266.243 231.339 266.788 231.848 267.332 232.356C268.559 232.984 268.453 233.89 267.864 234.897Z" fill="#DFCFB0"/>
<path d="M228.462 115.278C229.031 115.303 229.599 115.33 230.167 115.355C232.545 115.845 233.292 117.386 232.935 119.643C232.501 120.592 231.798 121.162 230.723 121.204C230.421 121.382 230.153 121.601 229.918 121.862C227.506 122.394 225.609 121.469 225.152 119.15C224.719 116.952 226.648 115.98 228.462 115.278Z" fill="#E1D1B5"/>
<path d="M234.95 134.764C234.689 135.554 234.428 136.344 234.167 137.135C233.877 137.264 233.618 137.437 233.388 137.656C232.831 137.798 232.266 137.855 231.691 137.836C229.825 137.4 228.593 136.387 228.509 134.333C228.619 133 228.508 131.544 230.287 131.139C232.948 130.921 234.736 131.829 234.95 134.764Z" fill="#DCCAA9"/>
<path d="M323.596 184.156C323.981 182.692 324.54 181.335 325.882 180.464C328.957 181.412 330.086 183.157 328.21 186.136C327.634 186.648 327.058 187.159 326.481 187.671C322.569 188.922 324.203 185.619 323.596 184.156Z" fill="#D8C39E"/>
<path d="M260.332 202.137C258.26 201.683 256.86 200.287 255.57 198.737C255.919 196.842 257.205 195.941 258.96 195.535L258.94 195.541C259.539 195.572 260.104 195.724 260.64 195.992C262.369 197.533 263.069 199.314 261.922 201.521C261.493 201.987 260.962 202.192 260.332 202.137Z" fill="#E9DEC9"/>
<path d="M306.979 234.274C305.071 234.395 304.727 236.32 303.532 237.265C302.406 236.709 300.557 236.831 301.122 234.692C301.012 232.782 300.605 230.751 303.056 229.867C303.618 232.001 304.8 233.581 306.979 234.274Z" fill="#EDE3D2"/>
<path d="M267.183 287.948C269.072 287.819 269.976 288.604 269.613 290.564C268.48 289.992 266.692 290.029 267.183 287.948Z" fill="#EEE6D6"/>
<path d="M196.245 241.713C196.526 241.391 196.808 241.07 197.089 240.749C197.949 239.553 199.131 239.246 200.518 239.511L200.502 239.468C202.783 240.029 202.809 241.804 202.742 243.63L202.774 243.617C202.464 246.495 200.802 247.906 198.053 247.107C195.234 246.288 194.858 244.183 196.245 241.713Z" fill="#E3D4B9"/>
<path d="M196.07 225.965C194.713 230.961 191.58 226.419 189.437 227.2C189.201 226.942 188.959 226.69 188.713 226.443C189.396 224.299 190.938 223.104 193.04 222.527C194.05 223.673 195.06 224.82 196.07 225.965Z" fill="#E7DBC5"/>
<path d="M241.252 127.812C242.053 128.023 242.856 128.234 243.658 128.447C245.778 130.48 248.436 132.539 245.64 135.707C243.775 137.821 241.415 138.473 239.32 135.687L239.289 135.714C238.809 134.057 239.018 132.412 239.382 130.77C239.2 129.275 240.217 128.537 241.252 127.812Z" fill="#D8C39E"/>
<path d="M251.938 123.523C251.471 122.912 250.968 122.264 251.686 121.548C252.281 120.955 253.069 120.824 253.706 121.418C254.305 121.978 254.404 122.783 253.871 123.452C253.313 124.153 252.609 124.143 251.938 123.523Z" fill="#D7C39D"/>
<path d="M275.077 207.664C272.746 205.996 273.15 204.406 275.217 202.865L275.233 202.87C277.192 203.358 277.128 204.755 276.769 206.286C276.205 206.746 275.641 207.205 275.077 207.664Z" fill="#E1D2B5"/>
<path d="M202.719 130.659C201.884 131.613 200.782 132.206 199.623 131.662C197.975 130.889 195.49 132.188 194.585 129.673C194.242 128.721 194.269 127.74 195.023 126.954C196.911 124.988 198.545 126.626 200.257 127.332C200.59 127.468 201.016 127.373 201.399 127.385C201.838 128.476 202.279 129.567 202.719 130.659Z" fill="#E3D4B9"/>
<path d="M238.959 175.529C237.561 176.806 236.163 178.083 234.764 179.358C233.086 177.5 230.069 178.804 228.496 176.696C235.459 168.858 235.69 168.831 238.959 175.529Z" fill="#E3D4B9"/>
<path d="M324.857 224.188C324.024 224.95 323.189 225.713 322.355 226.474C321.491 225.511 319.84 224.591 321.149 223.136C322.769 221.336 323.82 223.084 324.857 224.188Z" fill="#E1D2B7"/>
<path d="M181.247 172.942C210.54 186.245 235.905 207.922 255.356 233.393C274.884 258.964 288.471 288.459 297.503 319.241C302.575 336.527 305.637 354.174 309.351 371.769C309.758 373.695 313.053 373.551 312.894 371.472C311.64 355.129 308.011 338.893 303.648 323.12C299.301 307.406 293.768 291.99 286.906 277.193C273.08 247.381 253.561 220.22 228.307 199.041C214.38 187.361 198.655 177.976 181.784 171.212C180.685 170.771 180.21 172.472 181.247 172.942Z" fill="#352002"/>
<path d="M211.857 270.143C214.606 271.372 217.81 271.65 220.751 272.194C223.652 272.731 226.539 273.344 229.41 274.031C235.385 275.463 241.284 277.217 247.073 279.282C258.416 283.328 269.403 288.395 279.638 294.767C285.897 298.662 290.928 303.252 294.841 309.535C296.354 311.964 300.211 310.101 298.859 307.485C292.963 296.071 280.051 289.591 268.974 284.264C257.402 278.698 245.281 274.433 232.749 271.625C229.396 270.874 226.019 270.225 222.628 269.671C219.187 269.108 215.38 268.282 211.91 268.951C211.246 269.079 211.337 269.911 211.857 270.143Z" fill="#352002"/>
<path d="M282.631 291.566C278.359 287.544 277.491 281.847 276.199 276.404C274.955 271.159 272.664 266.808 269.338 262.578C265.888 258.188 262.317 253.735 258.154 249.994C254.609 246.809 250.447 243.76 245.513 243.557C244.374 243.511 243.78 244.659 244.179 245.631C245.33 248.432 246.481 251.234 247.632 254.036C248.191 253.372 248.751 252.707 249.31 252.043C241.874 248.644 233.692 247.048 225.523 247.52C224.208 247.596 223.616 249.171 224.755 249.98C226.058 250.906 226.902 251.976 227.59 253.412C228.011 252.759 228.431 252.105 228.852 251.452C215.575 250.562 202.196 256.285 193.567 266.398C192.661 267.461 193.121 268.972 194.569 269.156C196.786 269.436 199.005 269.719 201.223 269.999C201 268.97 200.776 267.939 200.553 266.909C197.459 268.65 194.881 270.923 192.776 273.783C192.352 274.358 192.479 275.302 192.958 275.803C205.015 288.416 222.019 295.67 239.493 295.32C239.264 294.264 239.034 293.207 238.805 292.152C236.68 293.43 234.555 294.709 232.431 295.988C231.326 296.653 231.127 298.79 232.696 299.083C236.99 299.884 241.285 300.685 245.579 301.49L244.943 298.644C244.147 299.316 243.352 299.989 242.557 300.662C241.348 301.684 242.271 303.398 243.618 303.588C250.608 304.566 257.813 304.121 264.612 302.202C267.887 301.278 270.971 299.93 274.095 298.602C277.207 297.28 280.353 296.176 283.779 296.567C286.12 296.834 286.284 293.154 283.942 292.908C277.163 292.198 271.35 296.411 265.162 298.411C258.239 300.649 250.966 301.215 243.769 300.222C244.122 301.197 244.476 302.173 244.83 303.147C245.624 302.474 246.418 301.8 247.212 301.125C248.11 300.363 247.842 298.514 246.576 298.279C242.28 297.482 237.985 296.681 233.69 295.88C233.778 296.912 233.867 297.944 233.955 298.975C236.08 297.697 238.205 296.418 240.329 295.139C241.655 294.341 241.442 291.941 239.642 291.97C223.132 292.241 206.802 285.553 195.429 273.544C195.49 274.217 195.551 274.89 195.612 275.564C197.369 273.201 199.489 271.299 202.039 269.823C203.485 268.985 203.002 266.915 201.369 266.732L194.71 265.983C195.135 266.793 195.559 267.604 195.983 268.414C203.961 258.793 216.306 253.608 228.731 254.146C229.746 254.19 230.452 253.09 229.992 252.186C229.069 250.369 227.804 248.935 226.173 247.723L225.405 250.182C233.239 249.896 241.002 251.303 248.139 254.59C249.405 255.173 250.707 254.118 250.15 252.751C249.007 249.945 247.863 247.14 246.72 244.334C246.275 245.025 245.831 245.715 245.386 246.406C250.581 246.785 255.186 251.208 258.618 254.757C262.204 258.466 265.663 262.535 268.666 266.735C271.877 271.226 272.948 276.055 274.225 281.315C275.342 285.919 277.17 290.507 281.211 293.267C282.234 293.966 283.559 292.441 282.631 291.566Z" fill="#352002"/>
<path d="M219.544 260.725C224.146 261.647 227.876 264.594 231.288 267.67C234.431 270.503 237.453 273.462 240.283 276.609C241.334 277.778 243.195 276.05 242.075 274.97C238.731 271.748 235.289 268.562 231.7 265.613C228.207 262.741 224.219 260.536 219.642 260.16C219.322 260.134 219.218 260.66 219.544 260.725Z" fill="#352002"/>
<path d="M223.267 257.357C225.242 258.826 226.834 260.756 228.141 262.829C229.03 264.239 229.627 266.19 231.087 267.073C231.393 267.258 231.814 267.055 231.825 266.687C231.882 264.738 230.182 262.783 229.091 261.26C227.648 259.247 226.009 257.653 223.842 256.443C223.231 256.103 222.711 256.944 223.267 257.357Z" fill="#352002"/>
<path d="M235.558 253.956C238.487 256.129 241.409 258.332 243.934 260.978C246.371 263.532 248.234 266.53 250.127 269.489C251.818 272.131 253.584 274.747 255.541 277.2C257.511 279.67 259.81 282.515 262.569 284.128C263.716 284.798 264.936 283.357 264.062 282.339C261.837 279.749 258.935 277.678 256.602 275.15C254.111 272.452 252.127 269.424 250.054 266.407C248.212 263.728 246.261 261.112 243.81 258.953C241.392 256.823 238.636 255.097 235.927 253.368C235.546 253.125 235.203 253.693 235.558 253.956Z" fill="#352002"/>
<path d="M231.571 260.717C235.238 262.305 239.042 263.623 242.647 265.347C244.348 266.16 245.998 267.092 247.536 268.183C249.076 269.278 250.304 270.694 251.798 271.821C252.475 272.331 253.468 271.41 253.033 270.692C251.081 267.48 246.99 265.247 243.698 263.674C239.882 261.851 235.952 260.731 231.811 259.943C231.298 259.846 231.089 260.508 231.571 260.717Z" fill="#352002"/>
<path d="M254.026 255.409C259.833 263.114 257.767 272.806 259.644 281.625C259.929 282.966 261.814 282.488 261.679 281.187C261.17 276.268 260.889 271.076 259.841 266.24C258.943 262.096 257.349 258.172 254.453 255.019C254.197 254.741 253.806 255.118 254.026 255.409Z" fill="#352002"/>
<path d="M253.441 262.967C256.064 265.703 257.862 268.971 258.78 272.649C259.042 273.697 260.719 273.306 260.401 272.301C259.173 268.417 257.047 265.158 253.953 262.498C253.625 262.216 253.124 262.635 253.441 262.967Z" fill="#352002"/>
<path d="M264.104 265.988C263.604 269.313 262.822 272.352 261.913 275.578C261.248 277.936 261.125 280.449 262.126 282.724C262.577 283.751 264.103 282.956 263.671 281.935C262.443 279.03 264.121 276.039 264.881 273.225C265.528 270.826 265.731 268.332 265.209 265.896C265.068 265.238 264.194 265.389 264.104 265.988Z" fill="#352002"/>
<path d="M246.778 296.22C251.566 296.811 255.928 294.96 260.217 293.056C262.468 292.059 264.723 291.052 267.096 290.379C269.58 289.675 272.003 289.692 274.547 289.489C275.466 289.416 275.752 288.23 274.829 287.87C270.655 286.241 265.431 288.407 261.571 290.05C256.735 292.11 251.996 294.526 246.676 295.001C245.937 295.066 246.131 296.139 246.778 296.22Z" fill="#352002"/>
<path d="M248.934 290.064C252.319 289.843 255.569 290.313 258.91 290.769C260.281 290.957 261.647 290.979 263.01 290.726C264.229 290.5 265.745 290.34 266.852 289.801C267.144 289.659 267.126 289.271 266.883 289.098C265.902 288.393 264.664 288.613 263.509 288.734C261.854 288.907 260.331 289.109 258.654 288.91C255.263 288.506 252.228 288.374 248.851 289.073C248.31 289.184 248.353 290.101 248.934 290.064Z" fill="#352002"/>
<path d="M253.104 298.901C256.611 297.588 258.921 294.217 261.987 292.161C262.358 291.912 262.092 291.383 261.672 291.543C258.109 292.897 256.37 296.831 252.754 298.214C252.289 298.392 252.646 299.072 253.104 298.901Z" fill="#352002"/>
<path d="M220.941 284.787C226.285 285.713 231.514 284.772 236.704 283.446C239.307 282.781 241.863 281.934 244.478 281.316C245.815 281 247.175 280.727 248.55 280.656C250.037 280.581 251.386 280.942 252.85 281.05C253.859 281.123 254.425 279.581 253.461 279.093C248.947 276.807 242.567 279.501 238.134 280.821C232.542 282.486 226.897 284.201 220.991 283.67C220.255 283.604 220.254 284.668 220.941 284.787Z" fill="#352002"/>
<path d="M219.698 281.047C223.222 280.608 226.103 281.559 229.471 282.322C231.47 282.775 234.609 283.313 236.476 282.301C236.91 282.065 236.821 281.476 236.391 281.304C235.134 280.804 233.66 281.18 232.322 281.148C230.661 281.11 229.107 280.739 227.505 280.326C224.788 279.625 222.252 279.566 219.552 280.368C219.122 280.497 219.256 281.103 219.698 281.047Z" fill="#352002"/>
<path d="M224.902 288.212C227.39 287.907 229.371 287.449 231.501 286.079C232.468 285.457 233.395 284.772 234.389 284.19C235.322 283.642 236.375 283.364 237.114 282.563C237.336 282.322 237.305 281.874 236.938 281.779C235.168 281.321 233.496 282.761 232.102 283.715C229.758 285.321 227.433 286.534 224.74 287.458C224.273 287.619 224.403 288.275 224.902 288.212Z" fill="#352002"/>
<path d="M205.788 276.636C209.353 277.434 212.886 276.885 216.333 275.82C218.245 275.23 220.13 274.464 222.101 274.098C224.153 273.717 226.435 273.861 228.413 273.276C229.404 272.982 229.637 271.469 228.507 271.153C225.152 270.214 221.082 272.54 218.004 273.642C214.114 275.034 210.083 276.541 205.886 276.071C205.563 276.035 205.465 276.564 205.788 276.636Z" fill="#352002"/>
<path d="M204.889 273.776C209.138 273.836 213.346 276.244 217.605 275.535C218.583 275.373 218.473 273.74 217.457 273.783C213.285 273.96 208.841 271.846 204.818 273.448C204.654 273.513 204.722 273.773 204.889 273.776Z" fill="#352002"/>
<path d="M274.277 147.13C274.088 150.489 274.957 153.939 275.469 157.245C276.014 160.764 276.449 164.301 276.772 167.848C277.436 175.143 277.567 182.468 277.323 189.787C277.084 196.901 276.403 204 275.279 211.029C274.402 216.518 272.945 221.676 271.38 226.993C269.173 234.5 267.397 242.483 267.616 250.35C267.697 253.222 271.987 253.487 272.122 250.552C272.454 243.281 273.246 236.357 275.154 229.315C276.576 224.066 278.058 218.972 278.915 213.588C281.176 199.37 281.573 184.941 280.168 170.615C279.765 166.509 279.214 162.416 278.515 158.348C277.863 154.55 277.328 150.295 275.443 146.878C275.148 146.342 274.313 146.505 274.277 147.13Z" fill="#352002"/>
<path d="M277.758 220.855C280.104 215.501 285.405 212.815 290.049 209.778C294.802 206.672 298.147 202.797 301.116 197.991C303.82 193.613 306.522 189.192 308.562 184.455C310.453 180.067 312.082 174.906 310.594 170.164C310.276 169.151 309.097 168.643 308.237 169.412C305.978 171.431 303.721 173.451 301.463 175.47C302.251 175.839 303.04 176.208 303.828 176.576C304.566 168.295 303.299 159.972 300.079 152.304C299.623 151.221 297.914 151.437 297.612 152.516C297.185 154.041 296.499 155.252 295.369 156.373C296.109 156.61 296.85 156.846 297.59 157.082C293.934 144.055 284.035 133.422 271.433 128.579C270.303 128.145 269.175 129.32 269.414 130.426C269.888 132.61 270.363 134.792 270.837 136.977C271.77 136.495 272.703 136.014 273.637 135.532C270.991 133.198 267.998 131.466 264.615 130.44C263.957 130.241 263.033 130.494 262.699 131.149C259.055 138.262 255.415 145.505 254.342 153.52C253.029 163.333 255.964 173.003 259.865 181.905L262.251 179.723C260.337 178.146 258.424 176.57 256.509 174.992C255.303 173.998 253.779 175.5 253.978 176.765C254.654 181.081 255.331 185.398 256.003 189.715C256.85 189.122 257.696 188.529 258.542 187.937C257.643 187.412 256.745 186.886 255.845 186.361C254.6 185.633 253.006 186.694 253.301 188.141C254.704 195.01 257.454 201.548 261.451 207.313C263.381 210.097 265.621 212.554 267.908 215.038C270.242 217.575 272.506 220.212 273.307 223.651C273.842 225.951 277.442 225.173 276.887 222.882C275.296 216.31 269.659 212.267 265.663 207.194C261.113 201.416 258.078 194.622 256.595 187.433C255.748 188.027 254.9 188.62 254.051 189.213L256.752 190.785C258.039 191.534 259.517 190.44 259.291 189.008C258.61 184.692 257.933 180.376 257.257 176.061C256.413 176.651 255.568 177.242 254.724 177.833C256.639 179.41 258.553 180.987 260.467 182.563C261.855 183.707 263.441 181.732 262.853 180.381C259.201 171.993 256.536 162.897 257.727 153.672C258.684 146.256 262.142 139.484 265.537 132.932C264.898 133.168 264.259 133.404 263.621 133.641C266.434 134.504 268.979 135.825 271.228 137.735C272.368 138.702 274.431 138.025 274.028 136.291C273.524 134.113 273.018 131.936 272.512 129.759L270.493 131.605C282.22 135.922 291.311 145.719 294.962 157.648C295.237 158.547 296.42 159.151 297.183 158.356C298.584 156.899 299.577 155.245 300.165 153.308C299.342 153.379 298.52 153.449 297.698 153.519C300.589 160.833 301.724 168.618 301.005 176.451C300.889 177.704 302.49 178.339 303.371 177.556C305.635 175.543 307.899 173.531 310.162 171.517C309.376 171.266 308.591 171.015 307.805 170.764C309.106 175.616 306.827 181.097 304.732 185.43C302.487 190.071 299.775 194.61 296.907 198.891C295.37 201.186 293.64 203.3 291.493 205.053C289.284 206.855 286.776 208.245 284.4 209.809C280.53 212.357 276.846 215.554 275.623 220.191C275.249 221.612 277.19 222.151 277.758 220.855Z" fill="#352002"/>
<path d="M285.726 151.338C286.374 155.837 284.911 160.182 283.24 164.306C281.612 168.322 279.774 172.256 277.703 176.063C276.873 177.586 279.153 178.688 279.89 177.068C281.845 172.775 283.755 168.394 285.327 163.944C286.773 159.852 287.418 155.467 286.291 151.216C286.195 150.853 285.673 150.971 285.726 151.338Z" fill="#352002"/>
<path d="M290.148 153.636C289.457 155.898 288.242 157.969 286.806 159.84C285.75 161.216 283.822 162.595 283.574 164.373C283.531 164.678 283.876 164.934 284.156 164.866C286.039 164.4 287.574 161.705 288.605 160.182C289.946 158.203 290.807 156.176 291.202 153.819C291.305 153.207 290.323 153.063 290.148 153.636Z" fill="#352002"/>
<path d="M297.448 164.102C296.374 167.595 295.276 171.1 293.615 174.368C292.133 177.284 290.13 179.871 288.126 182.44C286.11 185.024 284.128 187.642 282.375 190.416C280.669 193.117 278.606 196.387 278.025 199.564C277.804 200.772 279.411 201.788 280.144 200.538C281.911 197.521 282.892 193.995 284.551 190.888C286.162 187.868 288.179 185.164 290.2 182.411C292.088 179.839 293.892 177.206 295.182 174.275C296.577 171.101 297.329 167.672 298.111 164.308C298.21 163.878 297.581 163.669 297.448 164.102Z" fill="#352002"/>
<path d="M289.737 162.591C289.471 166.423 289.46 170.277 289.108 174.102C288.928 176.066 288.616 178.018 288.088 179.919C287.567 181.797 286.579 183.484 286.029 185.331C285.804 186.087 286.858 186.92 287.444 186.228C289.861 183.373 290.577 178.778 290.983 175.168C291.463 170.901 291.187 166.749 290.538 162.524C290.466 162.058 289.768 162.145 289.737 162.591Z" fill="#352002"/>
<path d="M302.237 182.008C296.895 190.05 287.149 191.311 279.457 196.022C278.324 196.715 279.18 198.456 280.403 197.876C284.794 195.795 289.494 193.824 293.647 191.302C297.373 189.039 300.656 186.206 302.727 182.316C302.9 181.99 302.446 181.695 302.237 182.008Z" fill="#352002"/>
<path d="M294.92 183.972C293.229 187.331 290.757 190.143 287.617 192.223C286.619 192.884 287.586 194.302 288.553 193.573C291.772 191.145 294.089 188.016 295.545 184.259C295.685 183.898 295.098 183.618 294.92 183.972Z" fill="#352002"/>
<path d="M295.658 195.042C292.502 195.647 289.495 196.044 286.278 196.169C283.706 196.271 281.145 196.946 279.22 198.725C278.4 199.483 279.559 200.752 280.391 200.006C282.772 197.868 286.132 198.413 289.096 198.187C291.541 198 293.935 197.372 296.03 196.086C296.557 195.764 296.306 194.918 295.658 195.042Z" fill="#352002"/>
<path d="M261.322 188.75C262.389 193.548 265.642 197.075 268.926 200.552C270.527 202.246 272.136 203.951 273.506 205.843C275.096 208.038 275.916 210.424 276.993 212.871C277.33 213.636 278.541 213.337 278.559 212.531C278.659 208.073 275.074 203.959 272.241 200.858C268.652 196.931 264.737 193.249 262.475 188.34C262.18 187.701 261.171 188.073 261.322 188.75Z" fill="#352002"/>
<path d="M267.891 188.86C270.212 194.278 269.885 201.04 274.06 205.563C274.255 205.774 274.676 205.718 274.745 205.41C274.994 204.304 274.592 203.434 274.132 202.414C273.351 200.686 272.536 199.182 272.136 197.297C271.447 194.046 270.514 191.266 268.784 188.404C268.45 187.852 267.636 188.265 267.891 188.86Z" fill="#352002"/>
<path d="M260.898 195.638C263.313 198.532 267.309 199.6 270.288 201.826C270.612 202.068 270.971 201.585 270.728 201.298C268.272 198.383 263.968 198.071 261.467 195.118C261.146 194.738 260.581 195.257 260.898 195.638Z" fill="#352002"/>
<path d="M263.488 160.584C264.395 165.904 266.985 170.503 269.954 174.936C271.478 177.211 273.163 179.378 274.64 181.684C275.304 182.721 275.924 183.787 276.431 184.912C277.101 186.401 277.237 187.837 277.64 189.38C277.949 190.568 279.599 190.4 279.735 189.206C280.289 184.329 275.746 179.344 273.098 175.698C269.636 170.933 266.069 166.149 264.581 160.349C264.401 159.65 263.367 159.875 263.488 160.584Z" fill="#352002"/>
<path d="M266.598 158.186C268.075 161.139 268.352 163.947 268.614 167.178C268.794 169.412 269.335 172.776 270.997 174.418C271.31 174.728 271.936 174.57 271.934 174.077C271.928 172.558 271.045 171.23 270.607 169.791C270.122 168.192 270.036 166.601 269.858 164.947C269.568 162.246 268.761 159.991 267.163 157.794C266.928 157.471 266.428 157.847 266.598 158.186Z" fill="#352002"/>
<path d="M261.577 165.478C262.627 167.589 263.647 169.278 265.498 170.773C266.537 171.612 267.658 172.344 268.668 173.218C269.523 173.958 270.048 174.706 271.069 175.168C271.42 175.326 271.693 174.93 271.659 174.628C271.446 172.74 269.288 171.557 267.865 170.522C265.68 168.934 263.881 167.154 262.204 165.042C261.929 164.696 261.388 165.097 261.577 165.478Z" fill="#352002"/>
<path d="M266.139 143.674C266.583 147.315 268.312 150.457 270.469 153.363C271.768 155.113 273.195 156.766 274.257 158.676C275.223 160.413 275.839 162.381 276.969 164C277.674 165.012 278.936 163.948 278.853 163.028C278.546 159.594 274.95 156.491 272.893 153.971C270.325 150.826 267.65 147.591 266.703 143.552C266.617 143.184 266.094 143.31 266.139 143.674Z" fill="#352002"/>
<path d="M268.526 141.808C269.866 145.839 269.063 150.533 271.075 154.336C271.616 155.359 273.083 154.572 272.655 153.53C271.074 149.682 271.65 144.918 268.823 141.654C268.716 141.532 268.47 141.642 268.526 141.808Z" fill="#352002"/>
<path d="M112.008 152.01C114.065 142.088 116.783 130.521 127.477 126.725C131.827 125.18 136.69 125.171 141.015 126.789C146.195 128.726 150.017 133.135 152.632 137.86C155.365 142.801 157.09 148.225 158.541 153.659C159.879 158.671 160.798 163.836 158.637 168.768C154.541 178.112 143.849 181.556 134.372 180.077C122.689 178.255 111.061 168.99 112.703 156.129C113.102 152.999 108.209 152.802 107.812 155.91C106.109 169.256 116.642 180.074 128.671 183.755C139.829 187.169 152.651 185.019 160.182 175.566C163.991 170.783 165.355 164.921 164.631 158.912C163.857 152.482 161.626 145.844 159.076 139.916C156.509 133.948 152.784 128.264 147.313 124.589C142.516 121.366 136.726 120.213 131.028 120.897C124.592 121.672 118.779 125.075 114.869 130.214C110.418 136.063 108.793 143.512 107.331 150.558C106.698 153.614 111.367 155.102 112.008 152.01Z" fill="#352002"/>
<path d="M123.757 141.135C125.352 136.518 130.251 133.945 134.995 134.625C139.728 135.304 142.762 138.945 145.519 142.496C145.99 143.104 146.956 142.522 146.808 141.831C145.63 136.317 139.88 132.24 134.386 131.998C128.969 131.759 123.656 135.405 122.211 140.655C121.935 141.659 123.416 142.122 123.757 141.135Z" fill="#352002"/>
<path d="M149.335 150.843C150.673 153.355 148.561 156.275 147.188 158.318C146.747 158.974 147.668 159.721 148.244 159.2C149.814 157.779 151.173 156.556 151.678 154.398C152.061 152.761 151.724 151.22 150.715 149.885C150.134 149.114 148.893 150.014 149.335 150.843Z" fill="#352002"/>
<path d="M130.577 151.941C128.386 153.457 128.161 156.338 129.707 158.466C131.578 161.041 135.109 161.068 137.917 160.414C139.63 160.016 139.067 157.418 137.345 157.75C135.825 158.042 134.032 158.355 132.589 157.619C131.188 156.906 130.424 154.852 131.84 153.761C132.826 153.002 131.616 151.222 130.577 151.941Z" fill="#352002"/>
<path d="M127.69 162.463C124.582 165.642 127.681 170.415 131.223 171.575C133.261 172.243 135.475 171.917 137.269 170.761C138.833 169.754 140.498 167.751 140.012 165.784C139.804 164.945 138.73 164.525 138.069 165.163C137.334 165.874 137.011 166.826 136.308 167.564C135.434 168.48 134.262 169.066 132.977 169.016C130.716 168.927 127.403 166.12 129.244 163.761C129.951 162.855 128.491 161.645 127.69 162.463Z" fill="#352002"/>
<path d="M141.33 168.659C143.421 171.76 147.698 171.71 150.091 168.934C152.548 166.083 152.908 160.276 150.361 157.381C149.677 156.605 148.536 157.171 148.419 158.086C148.116 160.48 149.436 162.696 148.777 165.143C148.112 167.609 145.133 169.889 142.931 167.549C142.204 166.776 140.69 167.709 141.33 168.659Z" fill="#352002"/>
<path d="M122.543 149.812C118.127 150.032 117.079 155.343 118.237 158.853C118.953 161.023 120.43 162.869 122.489 163.892C124.127 164.705 126.62 165.333 127.802 163.571C128.168 163.027 127.907 162.402 127.45 162.03C126.621 161.355 125.747 161.57 124.75 161.339C123.352 161.016 122.22 160.142 121.491 158.907C120.282 156.862 119.76 152.59 122.696 151.641C123.609 151.345 123.678 149.756 122.543 149.812Z" fill="#352002"/>
<path d="M128.742 148.939C129.136 147.05 131.199 145.326 133.208 145.981C135.873 146.849 135.327 149.874 136.738 151.667C137.232 152.297 138.23 152.1 138.63 151.496C139.731 149.839 138.788 147.471 137.79 145.964C136.785 144.447 135.164 143.281 133.319 143.103C130.06 142.787 127.05 145.343 126.972 148.63C126.948 149.615 128.524 149.983 128.742 148.939Z" fill="#352002"/>
<path d="M139.645 146.298C141.016 145.593 142.063 147.01 142.273 148.191C142.49 149.41 142.085 150.734 142.702 151.849C143.176 152.702 144.22 152.657 144.78 151.942C146.11 150.242 145.28 146.833 143.878 145.394C142.521 144.002 140.229 143.574 138.776 145.043C138.178 145.646 138.847 146.71 139.645 146.298Z" fill="#352002"/>
<path d="M143.859 135.058C146.317 135.596 148.556 136.952 149.721 139.246C150.761 141.294 150.273 143.235 150.54 145.376C150.679 146.493 152.127 146.488 152.685 145.754C154.401 143.495 153.462 139.693 152.054 137.511C150.313 134.815 147.33 133.293 144.156 133.364C143.233 133.384 142.838 134.835 143.859 135.058Z" fill="#352002"/>
<path d="M102.976 152.184C105.745 152.332 107.8 153.492 109.979 155.078C111.358 156.08 113.194 153.928 111.923 152.748C109.497 150.497 106.015 149.766 102.82 150.317C101.748 150.501 101.92 152.127 102.976 152.184Z" fill="#352002"/>
<path d="M102.436 162.298C104.677 161.709 107.033 161.569 109.339 161.762C109.885 161.808 110.442 161.492 110.726 161.036C111.062 160.499 111.043 160.073 110.795 159.502C110.581 159.011 110.003 158.664 109.478 158.655C106.735 158.605 104.229 159.222 101.782 160.461C100.807 160.955 101.339 162.587 102.436 162.298Z" fill="#352002"/>
<path d="M105.018 169.481C107.375 169.532 109.769 169.086 112.035 168.463C114.104 167.894 113.344 164.584 111.34 165.228C109.179 165.922 106.971 166.491 104.829 167.234C103.698 167.625 103.617 169.45 105.018 169.481Z" fill="#352002"/>
<path d="M109.612 175.103C110.837 174.942 111.858 174.554 112.891 173.871C113.836 173.247 115.038 172.379 114.998 171.13C114.979 170.521 114.526 169.797 113.821 169.843C112.719 169.916 112.12 170.594 111.306 171.276C110.56 171.902 109.68 172.446 108.843 172.943C107.694 173.622 108.307 175.275 109.612 175.103Z" fill="#352002"/>
<path d="M116.334 183.06C117.238 181.444 117.674 179.778 118.852 178.279C119.562 177.375 120.775 175.63 119.188 174.883C116.358 173.551 113.785 180.362 113.914 182.304C113.994 183.486 115.629 184.319 116.334 183.06Z" fill="#352002"/>
<path d="M121.162 179.085C120.883 180.328 121.015 181.676 121.111 182.941C121.196 184.072 121.353 185.549 122.423 186.188C122.805 186.415 123.25 186.358 123.586 186.083C124.534 185.307 124.477 183.776 124.384 182.667C124.279 181.39 124.221 180.065 123.759 178.863C123.327 177.736 121.422 177.932 121.162 179.085Z" fill="#352002"/>
<path d="M127.852 181.972C127.801 182.447 127.952 182.902 127.992 183.373C128.023 183.749 128.019 184.134 128.015 184.511C128.007 185.437 127.644 186.574 128.411 187.307C128.833 187.713 129.307 187.761 129.835 187.565C131.006 187.134 131.024 185.463 130.986 184.427C130.946 183.353 130.746 182.023 130.062 181.17C129.324 180.251 127.962 180.956 127.852 181.972Z" fill="#352002"/>
<path d="M135.939 187.192C136.376 186.102 136.646 185.01 136.927 183.869C137.168 182.892 136.64 181.901 135.603 181.72C134.554 181.537 133.763 182.292 133.629 183.293C133.476 184.454 133.33 185.567 133.341 186.739C133.354 188.281 135.377 188.594 135.939 187.192Z" fill="#352002"/>
<path d="M141.335 186.35C141.484 185.065 141.704 183.767 141.749 182.474C141.816 180.461 138.621 180.335 138.636 182.335C138.647 183.737 138.848 185.152 138.973 186.547C139.026 187.133 139.71 187.531 140.24 187.477C140.857 187.416 141.265 186.956 141.335 186.35Z" fill="#352002"/>
<path d="M148.347 186.124C148.279 184.22 147.877 182.426 146.679 180.899C145.512 179.416 142.86 181.211 143.916 182.817C144.737 184.066 145.692 185.201 146.343 186.559C146.785 187.478 148.384 187.2 148.347 186.124Z" fill="#352002"/>
<path d="M157.312 182.434C156.414 180.729 155.235 179.249 154.018 177.759C152.691 176.135 150.159 178.415 151.603 179.969C152.911 181.376 154.214 182.717 155.777 183.838C156.656 184.469 157.793 183.346 157.312 182.434Z" fill="#352002"/>
<path d="M163.637 178.066C162.544 177.043 161.445 176.065 160.269 175.136C159.237 174.32 158.266 173.227 156.863 173.552C156.318 173.678 156.065 174.172 156.123 174.697C156.27 176.027 157.58 176.594 158.611 177.254C159.868 178.058 161.143 178.777 162.463 179.474C163.323 179.928 164.449 178.827 163.637 178.066Z" fill="#352002"/>
<path d="M169.041 174.025C167.815 171.495 164.667 169.921 162.205 168.839C160.484 168.083 159.625 170.886 161.337 171.637C162.564 172.176 163.779 172.81 164.919 173.519C165.933 174.15 166.835 174.878 167.965 175.302C168.721 175.585 169.364 174.692 169.041 174.025Z" fill="#352002"/>
<path d="M170.03 165.657C168.83 164.898 167.262 164.596 165.899 164.24C164.553 163.89 163.168 163.223 161.827 163.777C161.083 164.085 161.016 165.103 161.487 165.648C162.408 166.712 164.201 166.731 165.517 167.009C166.864 167.293 168.326 167.656 169.701 167.521C170.627 167.43 170.725 166.096 170.03 165.657Z" fill="#352002"/>
<path d="M170.548 157.175C169.058 156.879 167.526 156.696 166.006 156.671C164.592 156.648 162.717 156.351 161.484 157.151C160.738 157.635 160.453 158.852 161.386 159.361C162.759 160.112 164.373 159.716 165.875 159.598C167.423 159.476 168.982 159.196 170.476 158.777C171.196 158.574 171.43 157.35 170.548 157.175Z" fill="#352002"/>
<path d="M170.047 149.291C167.38 149.743 164.764 150.444 162.146 151.126C161.705 151.241 161.252 151.568 161.145 152.042C161.015 152.616 161.029 152.896 161.437 153.348C161.742 153.686 162.264 153.876 162.712 153.755C165.426 153.027 168.137 152.304 170.777 151.343C171.992 150.903 171.214 149.093 170.047 149.291Z" fill="#352002"/>
<path d="M166.386 140.765C164.909 141.125 163.455 141.552 162.023 142.061C160.725 142.523 159.142 142.868 158.325 144.034C157.897 144.647 158.413 145.417 159.083 145.48C160.322 145.598 161.465 144.792 162.599 144.352C163.994 143.811 165.419 143.371 166.864 142.989C168.275 142.614 167.813 140.416 166.386 140.765Z" fill="#352002"/>
<path d="M162.341 134.486C160.364 135.263 158.642 136.423 156.975 137.73C155.678 138.745 157.464 140.748 158.717 139.635C160.195 138.322 161.816 137.192 163.429 136.056C164.382 135.384 163.269 134.121 162.341 134.486Z" fill="#352002"/>
<path d="M157.944 128.791C156.092 130.075 154.552 131.581 153.266 133.435C152.368 134.731 154.508 136.096 155.349 134.744C156.372 133.1 157.629 131.728 159.163 130.549C160.115 129.816 158.945 128.096 157.944 128.791Z" fill="#352002"/>
<path d="M151.738 123.811C151.259 124.726 150.78 125.641 150.3 126.557C149.832 127.452 149.262 128.211 149.412 129.251C149.51 129.937 150.375 130.298 150.957 129.984C151.841 129.509 152.101 128.602 152.519 127.737C152.944 126.859 153.369 125.981 153.794 125.103C154.461 123.725 152.472 122.408 151.738 123.811Z" fill="#352002"/>
<path d="M145.984 121.787C146.668 123.618 146.547 125.368 146.248 127.254C146.044 128.541 148.096 128.846 148.461 127.641C149.134 125.417 148.76 122.921 147.907 120.806C147.384 119.505 145.507 120.51 145.984 121.787Z" fill="#352002"/>
<path d="M137.249 116.546C137.413 118.259 137.612 119.952 137.862 121.654C138.114 123.369 140.773 122.797 140.497 121.087C140.224 119.395 139.906 117.728 139.548 116.052C139.223 114.532 137.108 115.08 137.249 116.546Z" fill="#352002"/>
<path d="M131.019 116.861C131.295 118.501 131.495 120.272 132.026 121.851C132.566 123.456 134.898 123.02 134.635 121.289C134.384 119.64 133.748 117.97 133.243 116.383C132.803 115.004 130.771 115.395 131.019 116.861Z" fill="#352002"/>
<path d="M122.138 120.16C122.991 121.462 123.613 122.725 124.122 124.19C124.69 125.823 127.24 125.392 126.827 123.609C126.384 121.697 125.208 119.954 123.701 118.731C122.873 118.059 121.558 119.276 122.138 120.16Z" fill="#352002"/>
<path d="M114.975 123.079C115.768 124.863 117.029 126.653 118.411 128.034C119.66 129.283 121.641 127.5 120.446 126.173C119.171 124.757 117.941 123.327 116.701 121.882C115.895 120.942 114.503 122.019 114.975 123.079Z" fill="#352002"/>
<path d="M109.935 128.783C111.61 129.943 112.921 131.555 114.215 133.111C115.33 134.45 117.713 132.856 116.772 131.339C115.362 129.067 113.275 127.755 110.717 127.081C109.679 126.808 109.044 128.166 109.935 128.783Z" fill="#352002"/>
<path d="M106.746 136.774C108.247 137.601 109.564 138.741 110.872 139.838C112.308 141.041 114.505 139.221 113.098 137.803C111.47 136.161 109.518 135.437 107.258 135.137C106.381 135.021 105.991 136.358 106.746 136.774Z" fill="#352002"/>
<path d="M103.241 143.741C104.472 144.094 105.654 144.554 106.817 145.087C107.895 145.581 108.923 146.483 110.159 146.183C110.723 146.046 111.267 145.402 111.061 144.787C110.576 143.345 109.184 142.965 107.841 142.503C106.481 142.035 105.031 141.81 103.603 141.669C102.402 141.551 102.09 143.409 103.241 143.741Z" fill="#352002"/>
<path d="M110.51 144.217C110.66 141.305 108.111 140.032 105.801 138.98C102.977 137.693 100.053 136.672 97.0538 135.874C90.9658 134.257 84.628 133.528 78.3323 133.748C71.9188 133.971 65.565 135.124 59.5088 137.253C53.4549 139.38 46.6377 142.845 45.0607 149.668C44.3495 152.743 44.7809 156.116 46.7956 158.625C49.0949 161.486 53.6327 161.937 55.4563 165.127C55.5736 164.483 55.6903 163.838 55.8075 163.193C52.3439 165.733 48.6802 168.648 47.7673 173.087C47.4393 174.684 47.4733 176.346 47.9948 177.898C48.74 180.11 50.4233 180.928 51.8821 182.566C53.2045 184.052 52.5091 186.16 52.1122 187.881C51.6505 189.877 51.3186 191.888 51.2728 193.942C51.1808 198.088 52.0309 202.277 53.7919 206.036C55.6178 209.933 58.4531 212.457 62.7256 213.229C66.8549 213.977 71.2585 214.189 75.4485 214.058C79.6205 213.929 83.7965 213.266 87.614 211.507C91.872 209.543 95.2541 206.222 98.3902 202.818C105.773 194.801 113.275 186.588 118.158 176.748C119.195 174.659 116.107 172.684 115.056 174.799C111.209 182.553 105.728 189.236 99.977 195.643C94.4112 201.844 89.0665 208.41 80.4588 210.029C76.7444 210.728 72.9413 210.679 69.1836 210.446C65.4382 210.213 60.8813 210.372 58.3356 207.137C55.9645 204.123 54.8671 199.79 54.6418 196.024C54.4254 192.412 55.5338 189.212 55.9018 185.69C56.0612 184.167 55.8703 182.603 55.0515 181.283C53.883 179.403 51.5269 178.684 50.9728 176.392C49.8032 171.563 54.6553 168.051 57.9962 165.587C58.5372 165.188 58.6724 164.22 58.3462 163.653C55.7012 159.056 48.3105 158.942 47.9436 152.924C47.5347 146.205 54.271 142.545 59.672 140.52C69.751 136.74 80.9747 135.845 91.5532 137.773C94.5363 138.317 97.4808 139.086 100.35 140.066C102.395 140.765 107.768 141.908 108.224 144.408C108.462 145.714 110.442 145.516 110.51 144.217Z" fill="#352002"/>
<path d="M97.4817 203.968C96.03 207.893 94.1933 212.373 94.7321 216.65C95.0666 219.314 96.3785 221.894 98.0268 223.98C99.5898 225.955 101.754 227.683 104.294 228.111C107.226 228.607 109.553 227.063 111.322 224.863C110.419 224.581 109.516 224.299 108.613 224.017C108.923 230.314 114.857 234.272 119.635 237.444C124.813 240.881 130.946 243.436 137.27 242.341C143.672 241.232 148.228 236.003 150.143 230.017C152.21 223.551 151.296 216.469 150.462 209.874C149.392 201.419 147.719 193.054 145.512 184.823C144.993 182.886 141.95 183.531 142.46 185.48C144.521 193.356 146.084 201.352 147.099 209.432C148.007 216.665 149.189 224.922 145.798 231.714C142.365 238.587 135.312 240.686 128.282 238.313C124.547 237.052 121.226 234.808 118.07 232.495C115.288 230.457 111.798 227.907 111.546 224.147C111.446 222.657 109.768 222.099 108.836 223.3C105.658 227.395 101.398 224.982 98.903 221.497C95.0931 216.177 96.5992 210.082 98.1814 204.186C98.3037 203.728 97.6452 203.525 97.4817 203.968Z" fill="#352002"/>
<path d="M164.216 166.561C168.711 169.857 174.232 171.068 179.482 172.646C185.593 174.482 191.256 177.22 195.844 181.748C199.763 185.615 203.258 190.708 203.32 196.417C203.375 201.554 199.733 207.22 194.203 207.443C192.631 207.506 192.026 209.062 192.877 210.28C194.048 211.957 192.59 214.291 191.231 215.348C189.258 216.882 186.455 216.866 184.079 216.835C182.089 216.808 179.089 216.185 177.461 217.666C176.627 218.426 176.477 219.52 176.207 220.549C175.891 221.757 175.415 222.901 174.764 223.968C172.179 228.204 167.21 230.933 162.218 230.284C157.408 229.658 153.039 226.166 151.461 221.569C150.768 219.55 147.484 220.236 148.183 222.274C150.083 227.82 154.712 232.152 160.507 233.383C166.507 234.658 172.592 232.169 176.408 227.457C177.319 226.334 178.06 225.116 178.641 223.792C178.962 223.063 179.228 222.321 179.433 221.55C179.723 220.455 179.612 220.283 180.782 220.152C183.954 219.798 187.044 220.53 190.19 219.573C194.997 218.109 198.593 212.565 195.379 207.992C194.937 208.938 194.495 209.884 194.053 210.83C199.929 210.573 204.662 206.124 206.146 200.529C207.728 194.561 205.361 188.413 201.83 183.63C197.712 178.05 191.575 173.811 185.072 171.502C178.454 169.151 171.414 168.469 165.18 165.026C164.156 164.461 163.276 165.871 164.216 166.561Z" fill="#352002"/>
<path d="M77.2045 134.115C72.58 131.631 68.4213 128.896 65.1975 124.659C63.8269 122.857 62.5057 120.747 62.4128 118.42C62.3211 116.121 63.7213 113.988 66.0912 113.756C67.0627 113.662 67.4863 112.414 67.0958 111.644C65.5911 108.675 64.5842 104.986 65.9562 101.765C67.1454 98.9723 70.2604 96.9928 73.2739 97.9364C74.384 98.284 75.1962 97.3017 75.0937 96.2722C74.511 90.4346 76.2305 84.5653 79.7003 79.8544C83.3764 74.8624 89.398 70.8754 95.81 72.0942C101.873 73.2461 107.097 77.6368 111.126 82.0807C115.679 87.1027 119.056 93.0634 121.722 99.267C124.854 106.556 126.981 114.224 128.87 121.915C129.379 123.987 132.628 123.289 132.111 121.217C128.386 106.291 123.587 90.5406 112.671 79.1773C108.138 74.4583 102.36 70.0463 95.7159 69.0657C88.9363 68.0651 82.6452 71.8037 78.4212 76.8767C73.7791 82.4513 71.6088 89.67 72.3011 96.8727L74.1209 95.2084C70.1317 93.9436 65.8163 96.0593 63.795 99.6294C61.4286 103.809 62.4404 108.9 64.4668 112.985L65.4709 110.872C62.8945 111.1 60.8524 112.973 59.9248 115.328C58.87 118.003 59.4845 120.938 60.7547 123.423C63.7318 129.25 69.9548 134.413 76.1189 136.477C77.4975 136.938 78.5352 134.829 77.2045 134.115Z" fill="#352002"/>
<path d="M112.921 80.0694C115.096 76.551 117.809 71.4728 122.638 71.7042C124.263 71.7819 125.414 73.0877 127.008 73.1466C128.675 73.2077 129.747 71.9517 130.734 70.8027C132.821 68.371 136.007 66.3359 139.346 66.6596C143.024 67.0171 144.053 71.2764 147.563 71.9453C149.197 72.2563 150.679 71.677 152.193 71.1242C153.917 70.4957 155.592 70.159 157.436 70.3712C161.102 70.7922 164.492 72.9969 166.56 76.0181C171.55 83.3074 169.495 92.7912 166.141 100.272C161.863 109.812 155.945 118.791 149.649 127.105C148.393 128.762 151.141 130.484 152.391 128.827C158.676 120.499 164.45 111.549 168.805 102.048C172.483 94.0206 174.632 84.2971 170.25 76.0682C166.655 69.3173 158.704 65.395 151.324 68.1444C150.418 68.4828 149.258 69.1056 148.254 68.942C146.999 68.737 146.205 67.4577 145.403 66.6047C144.122 65.2385 142.673 64.1943 140.816 63.7784C137.653 63.0697 134.33 64.1948 131.736 65.9991C130.876 66.598 130.076 67.2648 129.366 68.038C128.475 69.0069 127.938 70.5265 126.355 70.0693C125.405 69.7947 124.64 69.2361 123.605 69.0939C122.74 68.9755 121.853 69.0092 120.994 69.174C115.838 70.1619 113.235 74.9557 111.462 79.3978C111.118 80.2595 112.445 80.8374 112.921 80.0694Z" fill="#352002"/>
<path d="M157.271 120.732C162.671 116.674 167.403 111.871 173.268 108.425C178.008 105.639 183.493 103.336 188.868 102.166C195.483 100.725 201.364 102.284 206.062 107.284C208.316 109.683 210.515 112.439 211.769 115.511C213.04 118.624 212.971 122.864 209.743 124.774C208.294 125.631 208.772 127.685 210.418 127.884C216.391 128.607 221.208 134.852 223.193 140.157C225.525 146.384 220.097 151.238 215.6 154.661C214.996 155.121 214.922 156.306 215.504 156.813C217.064 158.167 216.183 160.292 214.675 161.276C213.242 162.212 211.448 162.473 209.799 162.768C208.71 162.964 208.162 164.493 208.996 165.286C211.079 167.264 207.43 169.774 206.019 170.9C204.081 172.446 202.109 173.554 199.563 173.463C194.824 173.296 190.118 172.007 185.366 172.218C184.003 172.278 183.454 174.282 184.933 174.703C188.308 175.665 191.937 175.901 195.418 176.314C198.515 176.682 201.574 177.048 204.483 175.667C208.29 173.86 215.992 167.741 211.244 163.23C210.975 164.069 210.707 164.908 210.439 165.747C213.375 165.219 216.769 164.448 218.455 161.713C219.802 159.529 219.763 156.506 217.751 154.757L217.655 156.908C223.318 152.598 229.148 147.069 226.368 139.281C223.952 132.512 218.026 125.495 210.565 124.596C210.79 125.633 211.015 126.67 211.24 127.706C216.329 124.69 216.735 118.352 214.418 113.396C211.901 108.016 207.128 102.542 201.682 100.048C196.784 97.8061 191.278 98.1731 186.212 99.6307C181.183 101.078 176.147 103.219 171.729 106.034C165.97 109.702 160.269 114.332 156.245 119.875C155.767 120.533 156.704 121.158 157.271 120.732Z" fill="#352002"/>
<path d="M193.248 118.291C186.181 118.894 179.378 121.17 172.919 124.03C166.558 126.845 159.963 130.368 154.82 135.114C154.155 135.726 154.942 136.976 155.755 136.464C167.561 129.037 179.612 122.15 193.523 119.572C194.378 119.414 194.061 118.221 193.248 118.291Z" fill="#352002"/>
<path d="M199.825 139.511C192.967 139.829 186.164 141.456 179.439 142.728C175.824 143.412 172.214 144.114 168.603 144.818C165.582 145.407 162.659 145.813 160.105 147.641C158.914 148.494 160.341 150.567 161.586 149.776C164.262 148.075 167.718 147.74 170.763 147.086C174.092 146.372 177.42 145.648 180.744 144.912C187.091 143.512 193.476 141.593 199.933 140.806C200.665 140.716 200.569 139.476 199.825 139.511Z" fill="#352002"/>
<path d="M194.421 154.197C189.328 154.912 184.158 154.021 179.071 153.654C173.538 153.255 168.309 154.375 162.822 154.783C161.234 154.9 161.099 157.398 162.71 157.286C168.399 156.889 173.888 155.738 179.618 156.071C184.721 156.367 189.717 156.938 194.761 155.78C195.789 155.544 195.443 154.053 194.421 154.197Z" fill="#352002"/>
<path d="M187.272 198.727C183.302 193.191 179.032 187.941 174.31 183.026C170.385 178.94 165.65 174.348 160.282 172.269C159.028 171.784 158.107 173.765 159.292 174.424C161.865 175.849 164.445 177.076 166.781 178.902C169.216 180.804 171.442 182.961 173.585 185.183C178.024 189.79 182.266 194.643 186.418 199.508C186.913 200.087 187.694 199.315 187.272 198.727Z" fill="#352002"/>
<path d="M173.721 203.747C171.304 199.134 168.542 194.679 165.421 190.506C162.241 186.255 158.6 182.405 156.588 177.413C156.019 176.001 153.769 177.105 154.459 178.499C156.669 182.968 160.051 186.67 163.17 190.51C166.7 194.858 169.55 199.657 172.726 204.255C173.12 204.827 174.066 204.404 173.721 203.747Z" fill="#352002"/>
<path d="M162.867 208.143C157.978 199.683 154.52 190.793 151.843 181.412C151.435 179.985 149.171 180.465 149.581 181.898C152.271 191.324 156.513 200.418 161.528 208.827C162.02 209.652 163.353 208.984 162.867 208.143Z" fill="#352002"/>
<path d="M138.778 215.721C140.726 210.899 141.313 205.465 141.734 200.319C142.166 195.041 142.196 189.82 141.628 184.55C141.469 183.073 139.197 183.566 139.367 185.037C139.959 190.17 140.241 195.419 139.86 200.58C139.486 205.628 138.293 210.52 137.611 215.517C137.514 216.231 138.54 216.31 138.778 215.721Z" fill="#352002"/>
<path d="M126.713 215.362C128.175 210.074 129.506 204.755 130.693 199.398C131.882 194.036 132.709 188.622 133.785 183.241C134.039 181.966 132.171 181.622 132.014 182.932C130.72 193.698 128.188 204.498 125.609 215.018C125.434 215.735 126.514 216.084 126.713 215.362Z" fill="#352002"/>
<path d="M116.022 204.5C117.64 195.838 120.311 187.565 122.786 179.135C123.196 177.74 121.177 177.146 120.65 178.472C117.416 186.636 115.849 195.608 114.817 204.289C114.735 204.975 115.893 205.193 116.022 204.5Z" fill="#352002"/>
<path d="M84.9362 170.354C89.0797 169.469 93.2237 168.584 97.366 167.698C99.3715 167.271 101.374 166.829 103.375 166.385C105.279 165.964 107.394 165.194 109.357 165.44C110.309 165.558 110.399 163.996 109.424 163.937C107.789 163.839 106.256 164.246 104.669 164.598C102.4 165.102 100.131 165.598 97.866 166.119C93.4691 167.128 89.0727 168.138 84.6769 169.148C83.9025 169.326 84.1593 170.521 84.9362 170.354Z" fill="#352002"/>
<path d="M72.7913 153.295C78.8643 152.225 84.9583 152.418 91.0919 152.675C96.7586 152.911 103.013 152.81 108.413 154.652C109.393 154.986 110.104 153.506 109.18 152.985C106.708 151.592 103.755 151.487 100.987 151.326C97.8392 151.143 94.6889 150.968 91.5359 150.893C85.2055 150.74 78.8554 151.368 72.6781 152.768C72.3377 152.845 72.4505 153.355 72.7913 153.295Z" fill="#352002"/>
<path d="M67.6412 148.24C72.5466 147.04 77.4058 146.483 82.4574 146.559C84.7833 146.594 87.1146 146.629 89.4357 146.786C91.8676 146.951 94.3044 147.411 96.7431 147.295C97.1939 147.274 97.331 146.667 96.8809 146.504C92.6167 144.958 87.1853 145.162 82.7214 145.559C77.6604 146.009 72.5501 146.908 67.6089 148.089C67.5119 148.112 67.5453 148.263 67.6412 148.24Z" fill="#352002"/>
<path d="M71.3166 188.312C77.38 185.828 83.7259 183.128 89.0779 179.293C89.3713 179.083 89.0302 178.654 88.7295 178.792C82.7067 181.539 76.97 184.829 70.8435 187.384C70.2231 187.644 70.7023 188.564 71.3166 188.312Z" fill="#352002"/>
<path d="M78.4326 197.787C84.554 195.371 90.4929 192.533 96.2174 189.285C101.519 186.276 106.922 182.899 110.46 177.814C110.757 177.388 110.128 176.859 109.756 177.226C100.829 186.044 88.7997 190.854 77.89 196.722C77.2 197.093 77.7293 198.064 78.4326 197.787Z" fill="#352002"/>
<path d="M78.8326 122.034C84.4841 124.863 90.1512 128.334 96.1333 130.407C96.5276 130.543 96.7862 129.967 96.4369 129.747C91.1099 126.39 84.873 124.143 79.1615 121.511C78.8096 121.349 78.4722 121.853 78.8326 122.034Z" fill="#352002"/>
<path d="M80.981 110.338C87.3853 112.706 93.5712 115.78 99.337 119.438C102.105 121.194 104.827 123.001 107.422 125.007C108.871 126.127 110.282 127.294 111.65 128.51C112.802 129.532 113.848 130.788 115.217 131.504C116.035 131.933 117.161 131.126 116.643 130.2C115.128 127.492 111.724 125.294 109.289 123.395C106.525 121.239 103.632 119.192 100.586 117.452C94.4801 113.96 88.0101 111.383 81.21 109.602C80.729 109.477 80.5149 110.166 80.981 110.338Z" fill="#352002"/>
<path d="M87.0371 119.687C91.4951 122.107 95.7871 124.894 100.442 126.926C101.051 127.192 101.387 126.27 100.905 125.918C96.7998 122.926 92.0413 120.915 87.42 118.854C86.9441 118.641 86.5774 119.438 87.0371 119.687Z" fill="#352002"/>
<path d="M87.3201 90.0022C91.4253 93.4542 95.2306 97.2351 98.6638 101.357C100.34 103.371 101.966 105.425 103.479 107.564C105.041 109.771 106.295 112.348 108.145 114.325C108.616 114.828 109.689 114.402 109.436 113.66C108.626 111.303 107 109.263 105.545 107.26C103.856 104.936 102.063 102.677 100.137 100.543C96.418 96.4244 92.2885 92.696 87.8834 89.3278C87.4916 89.0286 86.9364 89.6801 87.3201 90.0022Z" fill="#352002"/>
<path d="M101.403 92.7053C109.488 102.945 115.817 114.267 121.106 126.164C121.547 127.158 122.947 126.385 122.583 125.411C117.98 113.108 110.771 101.888 102.142 92.0289C101.713 91.5388 101.007 92.2046 101.403 92.7053Z" fill="#352002"/>
<path d="M140.755 84.9573C143.523 97.7849 142.475 110.828 140.38 123.666C140.106 125.344 142.791 125.476 143.037 123.785C144.91 110.865 146.057 97.3172 141.923 84.7062C141.688 83.9903 140.589 84.1898 140.755 84.9573Z" fill="#352002"/>
<path d="M128.561 90.7293C129.673 94.3876 130.681 98.0965 131.591 101.811C132.439 105.269 132.698 109.145 133.993 112.453C134.196 112.974 134.99 112.737 135.013 112.232C135.171 108.625 133.777 104.616 132.842 101.161C131.855 97.5157 130.61 94.0039 129.173 90.5116C129.033 90.1713 128.453 90.3741 128.561 90.7293Z" fill="#352002"/>
<path d="M154.582 87.4916C154.576 92.0737 153.877 96.6004 152.804 101.049C152.313 103.089 151.745 105.11 151.144 107.121C150.527 109.18 149.68 111.248 149.462 113.396C149.385 114.147 150.523 114.517 150.885 113.841C151.902 111.938 152.36 109.744 152.918 107.672C153.526 105.418 154.089 103.151 154.555 100.864C155.451 96.4687 155.929 92.0317 155.737 87.5426C155.706 86.8102 154.583 86.7367 154.582 87.4916Z" fill="#352002"/>
<path d="M156.895 103.754C155.703 108.186 154.247 112.554 152.432 116.771C151.48 118.982 150.433 121.151 149.311 123.28C148.305 125.19 146.984 127.03 146.296 129.082C146.059 129.79 147.046 130.494 147.585 129.9C149.122 128.204 150.048 125.972 151.035 123.925C151.981 121.958 152.866 119.96 153.684 117.935C155.495 113.442 157.007 108.854 158.183 104.154C158.392 103.317 157.122 102.91 156.895 103.754Z" fill="#352002"/>
<path d="M179.662 133.184C183.282 132.281 186.935 131.528 190.624 130.962C194.306 130.396 198.051 130.253 201.715 129.606C202.322 129.498 202.233 128.564 201.624 128.538C197.993 128.39 194.291 129.037 190.717 129.624C186.912 130.248 183.147 131.07 179.419 132.053C178.701 132.242 178.938 133.364 179.662 133.184Z" fill="#352002"/>
<path d="M177.584 161.604C182.541 162.018 187.448 161.928 192.379 161.25C192.768 161.197 192.717 160.555 192.323 160.564C187.434 160.684 182.523 160.586 177.648 160.178C176.731 160.102 176.67 161.527 177.584 161.604Z" fill="#352002"/>
</g>
</svg>
